<?xml version="1.0" encoding="UTF-8" standalone="no"?><svg xmlns="http://www.w3.org/2000/svg" xmlns:xlink="http://www.w3.org/1999/xlink" id="Camada_1" x="0px" y="0px" viewBox="0 0 302 144" style="enable-background:new 0 0 302 144;" xml:space="preserve"><style type="text/css">	.st0{fill:#FFFFFF;stroke:#61CE70;stroke-width:2;}	.st1{fill:#ADC73E;}	.st2{fill:#FFFFFF;}	.st3{opacity:0.5;fill:url(#SVGID_1_);enable-background:new    ;}	.st4{fill-rule:evenodd;clip-rule:evenodd;fill:#A4C929;}	.st5{fill-rule:evenodd;clip-rule:evenodd;fill:#02793E;}	.st6{fill:#54595F;}</style><path class="st0" d="M10,1h282c5,0,9,4,9,9v124c0,5-4,9-9,9H10c-5,0-9-4-9-9V10C1,5,5,1,10,1z"/><path class="st1" d="M52.5,114C76,114,95,95,95,71.5S76,29,52.5,29S10,48,10,71.5S29,114,52.5,114z"/><path class="st2" d="M74.4,66L52.5,88.1c-3,3-8.1,3-11,0l-5.5-5.5l27.4-27.4c3-3,8.1-3,11,0C77.6,58.1,77.6,63,74.4,66z"/><linearGradient id="SVGID_1_" gradientUnits="userSpaceOnUse" x1="39.0634" y1="32.1671" x2="58.5418" y2="73.8481" gradientTransform="matrix(1 0 0 -1 0 144)">	<stop offset="0" style="stop-color:#000000"/>	<stop offset="1" style="stop-color:#000000;stop-opacity:0"/></linearGradient><path class="st3" d="M58,82.6l10.6-10.6L57.6,60.9L47,71.5L58,82.6z"/><path class="st2" d="M63.6,77L52.5,88.1c-3,3-8.1,3-11,0L30.4,77c-3-3-3-8.1,0-11c1.7-1.7,3.6-2.3,5.5-2.3c1.9,0,3.8,0.6,5.5,2.3 l5.5,5.5l5.5,5.5C55.5,80,60.6,80,63.6,77z"/><path class="st4" d="M113.5,83.2c0.1-1.1,0-1.9-0.3-2.4c-0.4-0.5-1-0.8-1.8-0.8h-0.3l-0.8,6.4c1,0,1.8-0.3,2.3-0.8 C113.1,85.1,113.4,84.3,113.5,83.2z M119.4,86.7c-0.9,1.1-2.1,2-3.7,2.7l3.7,11.9h-7.8l-2-10.4l-1.3,10.4H101l3.5-26.8h8.4 c2.9,0,5,0.7,6.5,2.2c1.4,1.5,2,3.5,1.7,6C120.8,84.3,120.3,85.6,119.4,86.7z M130.9,89.5c0.1-1.1,0.1-1.9-0.2-2.4 c-0.3-0.5-0.7-0.8-1.4-0.8c-0.5,0-1,0.3-1.4,0.8c-0.4,0.5-0.7,1.3-1,2.4H130.9L130.9,89.5z M135.4,84.3c1.2,1.6,1.5,3.9,1.1,7 c-0.1,0.4-0.1,0.6-0.1,0.8c0,0.2-0.1,0.3-0.1,0.5h-9.7l0,0.3c-0.2,1.4-0.2,2.4,0.1,3c0.2,0.6,0.7,0.9,1.4,0.9c0.5,0,0.9-0.2,1.3-0.5 s0.7-0.9,0.9-1.6h5.6c-0.5,2.2-1.6,3.9-3.2,5.2c-1.6,1.3-3.5,1.9-5.7,1.9c-2.6,0-4.5-0.9-5.7-2.6c-1.2-1.7-1.6-4.1-1.2-7.3 c0.4-3.2,1.4-5.6,3.1-7.4c1.6-1.8,3.7-2.6,6.3-2.6C132.3,81.9,134.2,82.7,135.4,84.3L135.4,84.3z M147.2,101 c-0.5,0.3-1.1,0.5-1.6,0.6c-0.6,0.1-1.3,0.2-1.9,0.2c-2.4,0-4.1-0.9-5.3-2.7c-1.1-1.8-1.5-4.2-1.1-7.3c0.4-3,1.4-5.4,3-7.2 c1.6-1.8,3.6-2.7,6-2.7c0.6,0,1.2,0.1,1.8,0.2c0.5,0.1,1.1,0.3,1.5,0.6l-0.7,5.7c-0.4-0.3-0.9-0.4-1.4-0.4c-0.7,0-1.3,0.3-1.8,1 c-0.5,0.7-0.8,1.6-1,2.8c-0.2,1.2-0.1,2.1,0.2,2.7c0.3,0.6,0.8,0.9,1.6,0.9c0.2,0,0.4,0,0.7-0.1c0.3-0.1,0.5-0.2,0.8-0.3L147.2,101 L147.2,101z M148.8,101.3l3.8-29.3h6.7l-3.8,29.3H148.8L148.8,101.3z M168.7,91.9c0.2-1.3,0.2-2.3,0-3c-0.2-0.7-0.6-1-1.1-1 c-0.5,0-1,0.3-1.3,1c-0.4,0.7-0.6,1.7-0.8,3c-0.2,1.3-0.2,2.3,0,3c0.2,0.7,0.5,1,1.1,1c0.6,0,1-0.3,1.4-1 C168.2,94.2,168.5,93.2,168.7,91.9L168.7,91.9z M170,82.5h6.7l-2.4,18.8h-6.7l0.3-2.1c-0.8,0.9-1.5,1.6-2.3,2 c-0.8,0.4-1.5,0.6-2.4,0.6c-1.8,0-3.2-0.9-4-2.6c-0.8-1.7-1-4.2-0.6-7.3c0.4-3.2,1.2-5.6,2.5-7.3c1.2-1.7,2.8-2.6,4.7-2.6 c0.8,0,1.6,0.2,2.2,0.6c0.6,0.4,1.2,1.1,1.8,1.9L170,82.5z M176.2,101.3l2.4-18.8h6.4l-0.4,2.8c0.8-1.1,1.6-1.9,2.5-2.4 c0.9-0.5,2-0.8,3.1-0.8c1.1,0,1.9,0.3,2.5,0.8c0.6,0.5,1,1.3,1.2,2.4c0.7-1.1,1.4-1.9,2.3-2.4c0.9-0.5,2-0.8,3-0.8 c1.4,0,2.4,0.4,3,1.3c0.6,0.9,0.8,2.1,0.6,3.8l-1.8,14.1h-6.7l1.4-10.9c0.1-0.6,0-1-0.1-1.3c-0.2-0.3-0.5-0.4-0.9-0.4 c-0.2,0-0.4,0-0.5,0.1c-0.2,0.1-0.3,0.2-0.4,0.4c-0.3,0.3-0.4,0.8-0.5,1.3l-1.4,10.8h-6.6l1.4-11c0.1-0.6,0-1-0.1-1.3 c-0.2-0.3-0.5-0.4-0.9-0.4c-0.2,0-0.4,0-0.6,0.1c-0.2,0.1-0.3,0.2-0.4,0.4c-0.3,0.3-0.4,0.8-0.5,1.3l-1.4,10.8L176.2,101.3 L176.2,101.3z M214.3,89.5c0.1-1.1,0.1-1.9-0.2-2.4c-0.3-0.5-0.7-0.8-1.4-0.8c-0.5,0-1,0.3-1.4,0.8c-0.4,0.5-0.7,1.3-1,2.4H214.3 L214.3,89.5z M218.8,84.3c1.2,1.6,1.5,3.9,1.1,7c0,0.4-0.1,0.6-0.1,0.8c0,0.2-0.1,0.4-0.1,0.5H210l0,0.3c-0.2,1.4-0.2,2.4,0.1,3 c0.2,0.6,0.7,0.9,1.4,0.9c0.5,0,0.9-0.2,1.3-0.5c0.4-0.3,0.7-0.9,0.9-1.6h5.6c-0.5,2.2-1.6,3.9-3.2,5.2c-1.6,1.3-3.5,1.9-5.7,1.9 c-2.6,0-4.5-0.9-5.7-2.6c-1.2-1.7-1.6-4.1-1.2-7.3c0.4-3.2,1.4-5.6,3.1-7.4c1.6-1.8,3.7-2.6,6.3-2.6 C215.7,81.9,217.6,82.7,218.8,84.3z"/><path class="st5" d="M229.8,91.9h2.9l-0.2-9.9L229.8,91.9z M237.6,74.4l2.3,26.8h-7.1l0-3.9h-4.3l-1.1,3.9h-7.1l9.2-26.8H237.6 L237.6,74.4z M253.6,87.7c0.4-2.8,0.4-4.7,0.2-5.7c-0.2-1-0.8-1.5-1.7-1.5c-0.9,0-1.6,0.5-2.1,1.5c-0.5,1-0.9,2.9-1.3,5.7 c-0.4,2.8-0.4,4.7-0.2,5.7c0.2,1,0.8,1.5,1.7,1.5c0.9,0,1.6-0.5,2.1-1.5C252.8,92.4,253.2,90.5,253.6,87.7L253.6,87.7z M259.7,77.6 c1.4,2.4,1.8,5.9,1.2,10.3c-0.3,2.6-0.9,4.8-1.7,6.7c-0.8,1.8-1.9,3.4-3.2,4.8l2.8,3.4l-6.2,2.9l-2.3-3.8c-0.1,0-0.2,0-0.4,0 c-0.1,0-0.3,0-0.4,0c-3.2,0-5.4-1.2-6.8-3.6c-1.4-2.4-1.8-5.8-1.3-10.3c0.6-4.4,1.9-7.9,3.9-10.3c2-2.4,4.6-3.7,7.7-3.7 C256.1,73.9,258.3,75.1,259.7,77.6L259.7,77.6z M261.9,91.7l2.2-17.2h7.3l-2.3,17.9c-0.1,0.8,0,1.4,0.2,1.7c0.2,0.4,0.6,0.6,1.2,0.6 c0.6,0,1-0.2,1.4-0.6c0.3-0.4,0.5-1,0.6-1.7l2.3-17.9h7.4L280,91.7c-0.4,3.5-1.5,6.1-3.2,7.7c-1.7,1.6-4.1,2.4-7.2,2.4 c-3.1,0-5.3-0.8-6.5-2.4C261.9,97.7,261.5,95.2,261.9,91.7L261.9,91.7z M281.2,101.3l3.5-26.8h7.3l-3.5,26.8H281.2z"/><path class="st6" d="M115.7,39.3h2.6L110.8,60h-2.4L101,39.3h2.5l4.8,13.4c0.5,1.5,1,3,1.3,4.5c0.3-1.5,0.8-3.1,1.3-4.6L115.7,39.3z  M127.3,60.3c-2.3,0-4.1-0.7-5.4-2.1c-1.3-1.4-2-3.3-2-5.8c0-2.5,0.6-4.5,1.8-6c1.2-1.5,2.9-2.2,5-2.2c1.9,0,3.5,0.6,4.6,1.9 c1.1,1.3,1.7,3,1.7,5.1v1.5h-10.7c0,1.8,0.5,3.2,1.4,4.1c0.9,0.9,2.1,1.4,3.7,1.4c1.7,0,3.3-0.3,5-1v2.1c-0.8,0.4-1.6,0.6-2.4,0.8 C129.3,60.2,128.4,60.3,127.3,60.3z M126.7,46.2c-1.2,0-2.2,0.4-3,1.2c-0.7,0.8-1.2,1.9-1.3,3.4h8.1c0-1.5-0.3-2.6-1-3.4 C128.9,46.6,127.9,46.2,126.7,46.2z M144.1,44.2c0.7,0,1.3,0.1,1.9,0.2l-0.3,2.2c-0.6-0.1-1.2-0.2-1.7-0.2c-1.3,0-2.3,0.5-3.2,1.5 c-0.9,1-1.3,2.3-1.3,3.8V60h-2.3V44.5h1.9l0.3,2.9h0.1c0.6-1,1.3-1.8,2.1-2.3C142.3,44.5,143.2,44.2,144.1,44.2z M151.2,60h-2.4 V44.5h2.4V60z M148.7,40.3c0-0.5,0.1-0.9,0.4-1.2c0.3-0.3,0.6-0.4,1-0.4c0.4,0,0.7,0.1,1,0.4c0.3,0.3,0.4,0.6,0.4,1.2 c0,0.5-0.1,0.9-0.4,1.2c-0.3,0.3-0.6,0.4-1,0.4c-0.4,0-0.7-0.1-1-0.4C148.8,41.2,148.7,40.8,148.7,40.3z M163.2,46.3h-4V60h-2.4 V46.3h-2.8v-1.1l2.8-0.8v-0.9c0-3.8,1.7-5.7,5-5.7c0.8,0,1.8,0.2,2.9,0.5l-0.6,1.9c-0.9-0.3-1.7-0.4-2.3-0.4c-0.9,0-1.5,0.3-2,0.9 c-0.4,0.6-0.6,1.5-0.6,2.8v1h4V46.3z M168.4,60h-2.3V44.5h2.3V60z M165.9,40.3c0-0.5,0.1-0.9,0.4-1.2c0.3-0.3,0.6-0.4,1-0.4 c0.4,0,0.7,0.1,1,0.4c0.3,0.3,0.4,0.6,0.4,1.2c0,0.5-0.1,0.9-0.4,1.2c-0.3,0.3-0.6,0.4-1,0.4c-0.4,0-0.7-0.1-1-0.4 C166,41.2,165.9,40.8,165.9,40.3z M179.6,60.3c-2.2,0-4-0.7-5.2-2.1c-1.2-1.4-1.8-3.3-1.8-5.9c0-2.6,0.6-4.6,1.9-6 c1.3-1.4,3-2.1,5.4-2.1c0.7,0,1.5,0.1,2.2,0.2s1.3,0.3,1.8,0.6l-0.7,2c-0.5-0.2-1.1-0.4-1.7-0.5c-0.6-0.1-1.2-0.2-1.6-0.2 c-3.2,0-4.7,2-4.7,6c0,1.9,0.4,3.4,1.1,4.4c0.8,1,1.9,1.5,3.4,1.5c1.3,0,2.6-0.3,4-0.8v2.1C182.5,60,181.2,60.3,179.6,60.3z  M196.8,60l-0.5-2.2h-0.1c-0.8,1-1.5,1.6-2.3,2c-0.8,0.3-1.7,0.5-2.9,0.5c-1.5,0-2.7-0.4-3.6-1.2c-0.9-0.8-1.3-1.9-1.3-3.4 c0-3.1,2.5-4.8,7.5-4.9l2.6-0.1v-1c0-1.2-0.3-2.1-0.8-2.7c-0.5-0.6-1.4-0.9-2.5-0.9c-1.3,0-2.8,0.4-4.4,1.2l-0.7-1.8 c0.8-0.4,1.6-0.7,2.5-1c0.9-0.2,1.8-0.4,2.7-0.4c1.9,0,3.2,0.4,4.1,1.2c0.9,0.8,1.3,2.1,1.3,4V60H196.8z M191.4,58.3 c1.5,0,2.6-0.4,3.4-1.2c0.8-0.8,1.3-1.9,1.3-3.4v-1.4l-2.3,0.1c-1.9,0.1-3.2,0.4-4.1,0.9c-0.8,0.5-1.2,1.3-1.2,2.4 c0,0.8,0.3,1.5,0.8,1.9C189.8,58.1,190.5,58.3,191.4,58.3z M213.9,57.9h-0.1c-1.1,1.6-2.7,2.4-4.9,2.4c-2,0-3.6-0.7-4.7-2.1 c-1.1-1.4-1.7-3.4-1.7-5.9c0-2.6,0.6-4.5,1.7-6s2.7-2.1,4.7-2.1c2.1,0,3.7,0.8,4.8,2.3h0.2l-0.1-1.1l-0.1-1.1V38h2.4v22h-1.9 L213.9,57.9z M209.2,58.3c1.6,0,2.8-0.4,3.5-1.3c0.7-0.9,1.1-2.3,1.1-4.2v-0.5c0-2.2-0.4-3.8-1.1-4.7c-0.7-0.9-1.9-1.4-3.5-1.4 c-1.4,0-2.4,0.5-3.2,1.6c-0.7,1.1-1.1,2.6-1.1,4.5c0,2,0.4,3.5,1.1,4.5C206.7,57.8,207.8,58.3,209.2,58.3z M230.7,60l-0.5-2.2h-0.1 c-0.8,1-1.5,1.6-2.3,2c-0.8,0.3-1.7,0.5-2.9,0.5c-1.5,0-2.7-0.4-3.6-1.2c-0.9-0.8-1.3-1.9-1.3-3.4c0-3.1,2.5-4.8,7.5-4.9l2.6-0.1v-1 c0-1.2-0.3-2.1-0.8-2.7c-0.5-0.6-1.4-0.9-2.5-0.9c-1.3,0-2.8,0.4-4.4,1.2l-0.7-1.8c0.8-0.4,1.6-0.7,2.5-1c0.9-0.2,1.8-0.4,2.7-0.4 c1.9,0,3.2,0.4,4.1,1.2c0.9,0.8,1.3,2.1,1.3,4V60H230.7z M225.4,58.3c1.5,0,2.6-0.4,3.4-1.2c0.8-0.8,1.3-1.9,1.3-3.4v-1.4l-2.4,0.1 c-1.9,0.1-3.2,0.4-4,0.9c-0.8,0.5-1.2,1.3-1.2,2.4c0,0.8,0.3,1.5,0.8,1.9C223.7,58.1,224.4,58.3,225.4,58.3z M252,60.3 c-1,0-1.9-0.2-2.8-0.6c-0.8-0.4-1.5-1-2.1-1.7H247c0.1,0.9,0.2,1.8,0.2,2.6V67h-2.4V44.5h1.9l0.3,2.1h0.1c0.6-0.8,1.3-1.5,2.1-1.8 c0.8-0.4,1.7-0.6,2.8-0.6c2.1,0,3.6,0.7,4.8,2.1c1.1,1.4,1.7,3.4,1.7,5.9c0,2.5-0.6,4.5-1.7,5.9C255.6,59.6,254.1,60.3,252,60.3z  M251.7,46.2c-1.6,0-2.7,0.4-3.4,1.3s-1.1,2.3-1.1,4.2v0.5c0,2.2,0.4,3.7,1.1,4.7c0.7,0.9,1.9,1.4,3.5,1.4c1.3,0,2.4-0.5,3.1-1.6 c0.8-1.1,1.1-2.6,1.1-4.5c0-1.9-0.4-3.4-1.1-4.4C254.1,46.7,253.1,46.2,251.7,46.2z M276,52.2c0,2.5-0.6,4.5-1.9,5.9 c-1.3,1.4-3,2.1-5.3,2.1c-1.4,0-2.6-0.3-3.7-1c-1.1-0.7-1.9-1.6-2.5-2.8c-0.6-1.2-0.9-2.6-0.9-4.3c0-2.5,0.6-4.5,1.9-5.9 c1.3-1.4,3-2.1,5.3-2.1c2.2,0,3.9,0.7,5.2,2.2C275.3,47.8,276,49.8,276,52.2z M264.2,52.2c0,2,0.4,3.5,1.2,4.5c0.8,1,2,1.6,3.5,1.6 c1.5,0,2.7-0.5,3.5-1.5c0.8-1,1.2-2.6,1.2-4.5c0-2-0.4-3.5-1.2-4.5c-0.8-1-2-1.5-3.5-1.5c-1.5,0-2.7,0.5-3.5,1.5 C264.6,48.7,264.2,50.2,264.2,52.2z M287.2,44.2c0.7,0,1.3,0.1,1.9,0.2l-0.3,2.2c-0.6-0.1-1.2-0.2-1.7-0.2c-1.3,0-2.3,0.5-3.2,1.5 c-0.9,1-1.3,2.3-1.3,3.8V60h-2.4V44.5h1.9l0.3,2.9h0.1c0.6-1,1.3-1.8,2.1-2.3C285.3,44.5,286.2,44.2,287.2,44.2z"/></svg>
